<svg xmlns="http://www.w3.org/2000/svg" width="294.3" height="244.41" viewBox="0 0 294.3 244.41">
  <g id="Group_4" data-name="Group 4" transform="translate(-101.7 -267.76)">
    <g id="Group_2" data-name="Group 2">
      <path id="Path_9" data-name="Path 9" d="M233.76,512.17c0-1.64.01-2.69,0-3.74-.24-21.37.44-42.81-.99-64.1a541.242,541.242,0,0,0-7.65-58.47,308.633,308.633,0,0,0-16-58.08c-7.3-18.74-15.7-36.96-27.17-53.6-.59-.86-1.02-1.82-1.58-2.83q81.57-1.8,162.68-3.59c.01.09.03.19.04.28-42.39,5.09-84.77,10.17-127.69,15.32,2.54,5.09,5,9.8,7.26,14.59a247.549,247.549,0,0,1,17.21,48.7c3.4,14.48,7.07,28.93,9.48,43.59,2.39,14.57,3.71,29.35,4.85,44.08,1.04,13.44,1.2,26.96,1.76,40.44.04.93.2,1.85.36,3.2,3.45-.32,6.75-.55,10.02-.94,16.7-1.99,33.39-4.1,50.09-6.01,10.79-1.23,21.59-2.61,32.42-3.15s21.7-.12,33.13-.12q-2.31-43.77-4.61-87.44c.32-.02.65-.04.97-.05.85,5.71,1.77,11.41,2.55,17.14,1.38,10.16,2.7,20.32,4.02,30.49q2.475,18.96,4.93,37.91a13.451,13.451,0,0,0,.19,1.42c1.94,8.06,1.74,7.13-6.1,8-17.17,1.89-34.36,3.69-51.43,6.31-23.36,3.58-45.86,10.68-68.14,18.39-8.97,3.11-17.63,7.14-26.43,10.73C236.75,511.13,235.53,511.52,233.76,512.17Z" fill="#811527"/>
      <path id="Path_10" data-name="Path 10" d="M298.25,365.47c1.07.33,2.26.62,3.39,1.07,9.27,3.69,18.5,7.48,27.79,11.1,2.96,1.16,4.52.01,5.57-2.99,3.61-10.26,7.41-20.46,11.04-30.72,3.14-8.88,6.13-17.82,9.21-26.72,1.25-3.6,2.57-7.17,3.99-11.09-6.46-2.34-12.36-4.48-19-6.88,14.13-9.41,27.75-18.49,41.82-27.86,4.63,16.01,9.15,31.63,13.94,48.16-5.9-2.03-10.94-3.51-15.75-5.52-3.09-1.29-4.42-.37-5.68,2.38-5.68,12.43-11.55,24.77-17.24,37.19-5.54,12.1-10.95,24.26-16.4,36.4-.48,1.07-.8,2.22-1.43,3.97-4.81-2.46-9.58-4.88-14.33-7.32-6.7-3.43-13.36-6.92-20.12-10.21a3.032,3.032,0,0,0-2.78,1.03c-2.03,4.85-3.82,9.8-5.66,14.72-3.15,8.41-6.32,16.82-9.42,25.25-2.42,6.6-5.93,14.16-8.31,20.77-.05-.15.23-.57,0,0l-.3-.1C285.06,414.16,291.55,390.21,298.25,365.47Z" fill="#727474"/>
    </g>
    <path id="Path_11" data-name="Path 11" d="M101.7,305.17,138,306s64.6,90.38,84.8,175.69C222.8,481.69,164.4,367.33,101.7,305.17Z" fill="#7a0e2a"/>
    <path id="Path_12" data-name="Path 12" d="M133.38,284l42.36-.15s43.52,62.66,48.39,176.9C224.13,460.75,192.77,348,133.38,284Z" fill="#787979"/>
  </g>
</svg>
