<svg id="highwirepress-logo" xmlns="http://www.w3.org/2000/svg" width="214" height="57.9" viewBox="0 0 214 57.9">
  <g id="Group_7" data-name="Group 7">
    <g id="Group_5" data-name="Group 5">
      <path id="Path_11" data-name="Path 11" d="M76,26.2H59.6V37.5H56v-24h3.6v9.6H76V13.5h3.6v24H76Z" fill="#8d1530"/>
      <path id="Path_12" data-name="Path 12" d="M84.2,13.3h3.4V17H84.2Zm0,6.6h3.4V37.6H84.2Z" fill="#8d1530"/>
      <path id="Path_13" data-name="Path 13" d="M107.6,22.5h0c-1.4-2-4.1-3-7-3-4.7,0-9.7,2.6-9.7,9.1s5,9.1,9.7,9.1a7.689,7.689,0,0,0,6.9-3.3h.1V37c0,2.9-1.8,5.3-6.6,5.3-3.2,0-5.3-.6-5.9-2.9H91.7c.7,4.9,5.1,5.5,8.9,5.5,7.3,0,10.3-2.6,10.3-8.9V19.9h-3.4l.1,2.6Zm0,6.1h0c0,3.6-2.4,6.2-6.5,6.2s-6.5-2.6-6.5-6.2,2.4-6.3,6.5-6.3a6.091,6.091,0,0,1,6.5,6.3" fill="#8d1530"/>
      <path id="Path_14" data-name="Path 14" d="M114.9,13.3h3.4v9.3h.1a7.867,7.867,0,0,1,6.9-3.3c4.3,0,7.4,1.8,7.4,6.2v12h-3.4V26.2c0-2.6-1.6-4.1-5.2-4.1-3.1,0-5.8,1.8-5.8,5.3V37.6h-3.4Z" fill="#8d1530"/>
      <path id="Path_15" data-name="Path 15" d="M153.1,17.6H153l-6.6,19.9h-4l-7.9-24h3.9L144.5,33h.1l6.5-19.5h4.2L161.9,33h.1l6.1-19.5h3.7l-8.1,24h-3.9Z" fill="#8d1530"/>
      <path id="Path_16" data-name="Path 16" d="M173.7,13.3h3.4V17h-3.4Zm0,6.6h3.4V37.6h-3.4Z" fill="#8d1530"/>
      <path id="Path_17" data-name="Path 17" d="M181.2,19.9h3.4v3.2h.1a6.84,6.84,0,0,1,6.1-3.8,5.549,5.549,0,0,1,1.9.2v3.6a9.283,9.283,0,0,0-2.4-.3c-3.4,0-5.7,2-5.7,5.8v9h-3.4V19.9Z" fill="#8d1530"/>
      <path id="Path_18" data-name="Path 18" d="M214,29.7h0v-.4c0-7.3-4.9-10-9.6-10-6.9,0-10.3,4.3-10.3,9.4s3.4,9.5,10.3,9.5a9.48,9.48,0,0,0,9.1-6h-3.6c-1.2,2.5-3.8,3.1-5.7,3.1-3,0-6.3-2-6.5-5.6Zm-16.2-2.6h0c.5-3.2,3.3-5,6.4-5,3.2,0,5.7,1.8,6.2,5Z" fill="#8d1530"/>
    </g>
    <g id="Group_6" data-name="Group 6">
      <path id="Path_19" data-name="Path 19" d="M23.9,2.8h0V0c.8,0,1.6.1,2.4.1L26,2.9a14.769,14.769,0,0,0-2.1-.1" fill="#8d1530"/>
      <path id="Path_20" data-name="Path 20" d="M30.1,3.9h0L31,1.2a14.722,14.722,0,0,1,2.2,1L32,4.7a10.837,10.837,0,0,0-1.9-.8" fill="#8d1530"/>
      <path id="Path_21" data-name="Path 21" d="M26.9,3.1h0L27.3.3a15.536,15.536,0,0,1,2.3.5l-.8,2.7a9.022,9.022,0,0,0-1.9-.4" fill="#8d1530"/>
      <path id="Path_22" data-name="Path 22" d="M28.3,9.1h0l.9-2.7a15.385,15.385,0,0,1,1.9.8L29.9,9.7c-.6-.2-1.1-.4-1.6-.6" fill="#8d1530"/>
      <path id="Path_23" data-name="Path 23" d="M23.8,8.5h0V5.7a14.769,14.769,0,0,1,2.1.1l-.4,2.8a9.7,9.7,0,0,0-1.7-.1" fill="#8d1530"/>
      <path id="Path_24" data-name="Path 24" d="M26,8.6h0l.4-2.8a11.8,11.8,0,0,1,2,.4L27.6,9A7.491,7.491,0,0,0,26,8.6" fill="#8d1530"/>
      <path id="Path_25" data-name="Path 25" d="M23.8,11.8h0V9a9.7,9.7,0,0,1,1.7.1l-.4,2.8a5.7,5.7,0,0,0-1.3-.1" fill="#8d1530"/>
      <path id="Path_26" data-name="Path 26" d="M27.1,12.4h0L28,9.7a10.092,10.092,0,0,1,1.5.7l-1.2,2.5a6.117,6.117,0,0,0-1.2-.5" fill="#8d1530"/>
      <path id="Path_27" data-name="Path 27" d="M25.4,11.9h0l.4-2.8a10.462,10.462,0,0,1,1.7.4l-.8,2.7c-.4-.1-.8-.2-1.3-.3" fill="#8d1530"/>
      <path id="Path_28" data-name="Path 28" d="M36.5,7.9h0l1.8-2.1c.6.6,1.2,1.1,1.7,1.7L37.9,9.3,36.5,7.9" fill="#8d1530"/>
      <path id="Path_29" data-name="Path 29" d="M33.3,5.4h0L34.7,3a14.29,14.29,0,0,1,2,1.4L35,6.6c-.5-.4-1.1-.8-1.7-1.2" fill="#8d1530"/>
      <path id="Path_30" data-name="Path 30" d="M33,11.7h0l1.8-2.1,1.5,1.5-2.1,1.8L33,11.7" fill="#8d1530"/>
      <path id="Path_31" data-name="Path 31" d="M30.7,10.1h0L32,7.7a6.57,6.57,0,0,1,1.7,1.2L32,11.1a11.319,11.319,0,0,0-1.3-1" fill="#8d1530"/>
      <path id="Path_32" data-name="Path 32" d="M30.5,14.4h0l1.8-2.1,1.2,1.2-2.1,1.8-.9-.9" fill="#8d1530"/>
      <path id="Path_33" data-name="Path 33" d="M28.9,13.2h0l1.4-2.4a7.1,7.1,0,0,1,1.4,1L30,13.9c-.4-.3-.8-.5-1.1-.7" fill="#8d1530"/>
      <path id="Path_34" data-name="Path 34" d="M42.6,25h0l2.7.4a20.481,20.481,0,0,1-.5,2.4L42.1,27a11.7,11.7,0,0,0,.5-2" fill="#8d1530"/>
      <path id="Path_35" data-name="Path 35" d="M41.2,15h0l2.6-1.1a15.546,15.546,0,0,1,.8,2.3l-2.8.8a7.619,7.619,0,0,0-.6-2" fill="#8d1530"/>
      <path id="Path_36" data-name="Path 36" d="M12.4,39.6h0L10.9,42c-.7-.5-1.3-1-1.9-1.5l1.8-2.2a10.1,10.1,0,0,0,1.6,1.3" fill="#8d1530"/>
      <path id="Path_37" data-name="Path 37" d="M6.8,7.8h0L4.7,6c.5-.6,1-1.2,1.6-1.8l1.9,2A10.7,10.7,0,0,0,6.8,7.8" fill="#8d1530"/>
      <path id="Path_38" data-name="Path 38" d="M26.9,41.9h0l.5,2.8a19.419,19.419,0,0,1-2.4.2l-.1-2.8a7.145,7.145,0,0,0,2-.2" fill="#8d1530"/>
      <path id="Path_39" data-name="Path 39" d="M36.6,37h0a19.2,19.2,0,0,0,1.5-1.4l2,1.9a13.65,13.65,0,0,1-1.7,1.7h0L36.6,37h0" fill="#8d1530"/>
      <path id="Path_40" data-name="Path 40" d="M3,26H3l-2.7.6A9.863,9.863,0,0,1,0,24.2L2.8,24A15.029,15.029,0,0,0,3,26" fill="#8d1530"/>
      <path id="Path_41" data-name="Path 41" d="M39.1,11h0l2.2-1.6a23.923,23.923,0,0,1,1.3,2.1l-2.4,1.3A17.393,17.393,0,0,0,39.1,11" fill="#8d1530"/>
      <path id="Path_42" data-name="Path 42" d="M42.4,19.8h0l2.7-.3a19.269,19.269,0,0,1,.1,2.4H42.4a4.956,4.956,0,0,0,0-2.1" fill="#8d1530"/>
      <path id="Path_43" data-name="Path 43" d="M41.2,30.4h0l2.5,1.2a11.252,11.252,0,0,1-1.2,2.1l-2.3-1.5a7.677,7.677,0,0,0,1-1.8" fill="#8d1530"/>
      <path id="Path_44" data-name="Path 44" d="M33.1,39.7h0l1.3,2.5a14.722,14.722,0,0,1-2.2,1l-1-2.6c.7-.3,1.3-.6,1.9-.9" fill="#8d1530"/>
      <path id="Path_45" data-name="Path 45" d="M19.8,42.1h0l-.5,2.7a15.452,15.452,0,0,1-2.3-.6l.9-2.7a5.308,5.308,0,0,0,1.9.6" fill="#8d1530"/>
      <path id="Path_46" data-name="Path 46" d="M6.3,34h0L4,35.6a11.252,11.252,0,0,1-1.2-2.1l2.4-1.3A14.19,14.19,0,0,0,6.3,34" fill="#8d1530"/>
      <path id="Path_47" data-name="Path 47" d="M2.9,16.8h0L.2,16.2a15.457,15.457,0,0,1,.7-2.3l2.6,1a5.308,5.308,0,0,0-.6,1.9" fill="#8d1530"/>
      <path id="Path_48" data-name="Path 48" d="M14.4,36.4h0L13,38.8c-.6-.4-1.1-.8-1.7-1.2l1.8-2.2a11.319,11.319,0,0,0,1.3,1" fill="#8d1530"/>
      <path id="Path_49" data-name="Path 49" d="M6.4,25.3h0l-2.7.6-.3-2.1,2.8-.2a8.807,8.807,0,0,0,.2,1.7" fill="#8d1530"/>
      <path id="Path_50" data-name="Path 50" d="M9.3,9.8h0L7.1,8.1A10.7,10.7,0,0,1,8.5,6.5l1.9,2A12.667,12.667,0,0,0,9.3,9.8" fill="#8d1530"/>
      <path id="Path_51" data-name="Path 51" d="M36.7,16.7h0l2.6-1.1a6.637,6.637,0,0,1,.6,2l-2.7.7a14.241,14.241,0,0,0-.5-1.6" fill="#8d1530"/>
      <path id="Path_52" data-name="Path 52" d="M33.7,33.6h0l1.2-1.2,2,1.9a6.73,6.73,0,0,1-1.5,1.4h0l-1.7-2.1Z" fill="#8d1530"/>
      <path id="Path_53" data-name="Path 53" d="M37.9,24.2h0l2.7.4a11.8,11.8,0,0,1-.4,2l-2.7-.8a9.363,9.363,0,0,0,.4-1.6" fill="#8d1530"/>
      <path id="Path_54" data-name="Path 54" d="M26.3,37.9h0l.5,2.8a15.03,15.03,0,0,1-2,.2L24.6,38c.6,0,1.2-.1,1.7-.1" fill="#8d1530"/>
      <path id="Path_55" data-name="Path 55" d="M35.1,14h0l2.3-1.6a17.393,17.393,0,0,1,1.1,1.8l-2.4,1.3c-.4-.6-.7-1.1-1-1.5" fill="#8d1530"/>
      <path id="Path_56" data-name="Path 56" d="M37.7,20.2h0l2.8-.3a14.769,14.769,0,0,1,.1,2.1H37.8a10.869,10.869,0,0,0-.1-1.8" fill="#8d1530"/>
      <path id="Path_57" data-name="Path 57" d="M37.1,28.3h0l2.5,1.2a16.179,16.179,0,0,1-1,1.8l-2.3-1.5c.3-.5.5-1,.8-1.5" fill="#8d1530"/>
      <path id="Path_58" data-name="Path 58" d="M31.1,35.8h0l1.3,2.5-1.8.9-1-2.6c.5-.3,1-.5,1.5-.8" fill="#8d1530"/>
      <path id="Path_59" data-name="Path 59" d="M20.6,38.2h0L20,41a14.619,14.619,0,0,1-2-.5l.9-2.7c.6.1,1.1.3,1.7.4" fill="#8d1530"/>
      <path id="Path_60" data-name="Path 60" d="M9.3,32h0L7,33.7a16.179,16.179,0,0,1-1-1.8l2.4-1.3c.3.5.6,1,.9,1.4" fill="#8d1530"/>
      <path id="Path_61" data-name="Path 61" d="M6.1,17.6h0L3.4,17A7.619,7.619,0,0,1,4,15l2.6,1c-.2.5-.3,1-.5,1.6" fill="#8d1530"/>
      <path id="Path_62" data-name="Path 62" d="M16,15.6h0l-2.2-1.7a6.885,6.885,0,0,1,1.1-1.3l1.9,2a7.006,7.006,0,0,0-.8,1" fill="#8d1530"/>
      <path id="Path_63" data-name="Path 63" d="M14,24.1h0l-2.7.6a8.807,8.807,0,0,1-.2-1.7l2.8-.2a2.979,2.979,0,0,0,.1,1.3" fill="#8d1530"/>
      <path id="Path_64" data-name="Path 64" d="M30.4,29.8h0l.9-.9,2,1.9L32.1,32h0l-1.7-2.2h0" fill="#8d1530"/>
      <path id="Path_65" data-name="Path 65" d="M33.1,18.2h0l2.6-1a9.829,9.829,0,0,1,.5,1.6l-2.7.7a4.951,4.951,0,0,0-.4-1.3" fill="#8d1530"/>
      <path id="Path_66" data-name="Path 66" d="M25.5,32.1h0l.5,2.8a9.853,9.853,0,0,1-1.7.2l-.1-2.8a5.066,5.066,0,0,0,1.3-.2" fill="#8d1530"/>
      <path id="Path_67" data-name="Path 67" d="M33.8,23.5h0l2.7.4c-.1.6-.2,1.1-.3,1.7l-2.7-.8c.1-.4.2-.8.3-1.3" fill="#8d1530"/>
      <path id="Path_68" data-name="Path 68" d="M18.4,30.7h0L17,33.1a12.132,12.132,0,0,1-1.4-1l1.8-2.2c.3.3.7.5,1,.8" fill="#8d1530"/>
      <path id="Path_69" data-name="Path 69" d="M32,16.1h0l2.3-1.6.9,1.5-2.4,1.3c-.3-.5-.6-.9-.8-1.2" fill="#8d1530"/>
      <path id="Path_70" data-name="Path 70" d="M33.8,20.7h0l2.7-.3a9.7,9.7,0,0,1,.1,1.7H33.8a3.3,3.3,0,0,0,0-1.4" fill="#8d1530"/>
      <path id="Path_71" data-name="Path 71" d="M33,26.3h0l2.5,1.2a10.93,10.93,0,0,1-.8,1.5l-2.3-1.5.6-1.2" fill="#8d1530"/>
      <path id="Path_72" data-name="Path 72" d="M28.8,31h0l1.3,2.5a10.092,10.092,0,0,1-1.5.7l-1-2.6,1.2-.6" fill="#8d1530"/>
      <path id="Path_73" data-name="Path 73" d="M21.9,32.1h0l-.5,2.7a7.491,7.491,0,0,1-1.6-.4l.9-2.7a5.637,5.637,0,0,0,1.2.4" fill="#8d1530"/>
      <path id="Path_74" data-name="Path 74" d="M15.6,27.9h0l-2.3,1.6L12.4,28l2.4-1.3c.3.5.6.8.8,1.2" fill="#8d1530"/>
      <path id="Path_75" data-name="Path 75" d="M14,19.7h0l-2.7-.6a7.494,7.494,0,0,1,.5-1.6l2.6,1c-.1.3-.3.8-.4,1.2" fill="#8d1530"/>
    </g>
  </g>
  <g id="Group_11" data-name="Group 11">
    <g id="Group_9" data-name="Group 9">
      <g id="Group_8" data-name="Group 8">
        <path id="Path_76" data-name="Path 76" d="M194,55.3h-2.1c-.3-2.3-.6-4.7-.9-7h0v.1c-.7,2.2-1.3,4.4-2.1,6.6a.319.319,0,0,1-.3.3h-.7c-.7-2.3-1.4-4.7-2.2-7.1h0c-.3,2.3-.4,4.7-.9,7.1h-2.1c.4-3.3.9-6.6,1.3-9.9h2.3c.1,0,.1,0,.3.1a53.585,53.585,0,0,1,1.7,5.7.1.1,0,0,0,.1.1c0-.1.1-.3.1-.4.6-1.8,1.1-3.5,1.7-5.4,0-.1.1-.1.3-.1h2.2c.1,0,.1,0,.1.1.1,1.1.3,2.2.4,3.3s.3,2.2.4,3.1a23.8,23.8,0,0,0,.4,3.4Z" fill="#8d1530"/>
        <path id="Path_77" data-name="Path 77" d="M197.3,55.3h-2.1V45.4h3.4a2.9,2.9,0,0,1,2.3,1,3.068,3.068,0,0,1,.6,2.1,2.875,2.875,0,0,1-.7,1.8,2.533,2.533,0,0,1-1.7,1,5.7,5.7,0,0,1-1.3.1h-.4a.438.438,0,0,0-.1.3v3.4C197.3,55,197.3,55.1,197.3,55.3Zm0-5.7h1a1.386,1.386,0,0,0,1.1-1.1,1.187,1.187,0,0,0-.9-1.3,4.1,4.1,0,0,0-1.1-.1c-.1,0-.1,0-.1.1v2.4Z" fill="#8d1530"/>
        <path id="Path_78" data-name="Path 78" d="M202.3,53.9c.4-.6,1-1.1,1.3-1.6.3.1.4.4.6.4a1.666,1.666,0,0,0,1.1.4c.6.1,1.3-.6,1.3-1.3,0-.3-.3-.4-.4-.6a5.972,5.972,0,0,0-1.1-.6,1.141,1.141,0,0,1-.6-.3,2.409,2.409,0,0,1-1.6-2.8,2.974,2.974,0,0,1,2.6-2.6,3.845,3.845,0,0,1,2.4.4,4.7,4.7,0,0,1,.9.6c-.4.4-.6.7-1,1.1-.1.1-.3.4-.4.4s-.4-.1-.4-.3c-.4-.1-.6-.4-1-.4s-.6.1-.7.4a1.7,1.7,0,0,0,0,1l.4.4a1.666,1.666,0,0,0,1.1.4c.4.3,1,.4,1.4.9a2.781,2.781,0,0,1,.1,3.8,3.614,3.614,0,0,1-4.4,1A2.13,2.13,0,0,1,202.3,53.9Z" fill="#8d1530"/>
      </g>
    </g>
    <g id="Group_10" data-name="Group 10">
      <path id="Path_79" data-name="Path 79" d="M111.5,45.5a14.042,14.042,0,0,1,2.3-.2,3.666,3.666,0,0,1,2.6.8,2.481,2.481,0,0,1,.8,2,3.011,3.011,0,0,1-.7,2,3.8,3.8,0,0,1-2.9,1,3.083,3.083,0,0,1-1-.1v3.8h-1.2V45.5Zm1.2,4.6a3.083,3.083,0,0,0,1,.1c1.5,0,2.4-.7,2.4-2,0-1.2-.9-1.8-2.2-1.8a3.11,3.11,0,0,0-1.1.1v3.6Z" fill="#8d1530"/>
      <path id="Path_80" data-name="Path 80" d="M124.6,51.4a3.3,3.3,0,0,1-3.4,3.6,3.185,3.185,0,0,1-3.2-3.5,3.31,3.31,0,0,1,3.4-3.6A3.185,3.185,0,0,1,124.6,51.4Zm-5.3.1c0,1.5.9,2.6,2.1,2.6s2.1-1.1,2.1-2.6c0-1.1-.6-2.6-2-2.6C119.9,48.8,119.3,50.2,119.3,51.5Z" fill="#8d1530"/>
      <path id="Path_81" data-name="Path 81" d="M126.6,48.1l.9,3.4a22.5,22.5,0,0,1,.5,2.2h0l.6-2.1,1.1-3.5h1l1,3.4c.3.8.4,1.5.6,2.2h0a22.5,22.5,0,0,1,.5-2.2l1-3.4H135l-2.2,6.8h-1.1l-1-3.2c-.2-.8-.4-1.4-.6-2.2h0c-.2.8-.4,1.5-.6,2.2l-1.1,3.2h-1.1l-2-6.8h1.3Z" fill="#8d1530"/>
      <path id="Path_82" data-name="Path 82" d="M136.9,51.7a2.177,2.177,0,0,0,2.3,2.4,7.517,7.517,0,0,0,1.9-.3l.2.9a5.542,5.542,0,0,1-2.3.4,3.124,3.124,0,0,1-3.3-3.4c0-2,1.2-3.7,3.2-3.7,2.2,0,2.8,1.9,2.8,3.2v.6h-4.8Zm3.6-.9c0-.8-.3-2-1.7-2a2.054,2.054,0,0,0-1.9,2Z" fill="#8d1530"/>
      <path id="Path_83" data-name="Path 83" d="M143.3,50.2a13.422,13.422,0,0,0-.1-2.1h1.1v1.3h.1a2.013,2.013,0,0,1,1.9-1.5h.3v1.2h-.4a1.812,1.812,0,0,0-1.7,1.6c0,.2-.1.4-.1.6v3.6h-1.2V50.2Z" fill="#8d1530"/>
      <path id="Path_84" data-name="Path 84" d="M148.4,51.7a2.177,2.177,0,0,0,2.3,2.4,7.517,7.517,0,0,0,1.9-.3l.2.9a5.542,5.542,0,0,1-2.3.4,3.124,3.124,0,0,1-3.3-3.4c0-2,1.2-3.7,3.2-3.7,2.2,0,2.8,1.9,2.8,3.2v.6h-4.8Zm3.6-.9c0-.8-.3-2-1.7-2a2.054,2.054,0,0,0-1.9,2Z" fill="#8d1530"/>
      <path id="Path_85" data-name="Path 85" d="M160.5,44.9v8.2a8.622,8.622,0,0,0,.1,1.7h-1.1l-.1-1.2h0a2.423,2.423,0,0,1-2.3,1.3,3.106,3.106,0,0,1-2.9-3.4c0-2.3,1.4-3.6,3-3.6a2.3,2.3,0,0,1,2,1h0v-4Zm-1.2,5.9a.749.749,0,0,0-.1-.5,1.832,1.832,0,0,0-1.8-1.4c-1.3,0-2,1.1-2,2.6,0,1.4.7,2.5,2,2.5a1.8,1.8,0,0,0,1.8-1.5c0-.2.1-.3.1-.5Z" fill="#8d1530"/>
      <path id="Path_86" data-name="Path 86" d="M165.5,54.9c0-.5.1-1.1.1-1.7V45h1.2v4.3h0a2.356,2.356,0,0,1,2.3-1.2c1.7,0,2.9,1.4,2.9,3.5,0,2.4-1.5,3.6-3,3.6a2.453,2.453,0,0,1-2.3-1.3h0l-.1,1.1h-1.1Zm1.3-2.8c0,.2,0,.3.1.4a1.808,1.808,0,0,0,1.8,1.4c1.3,0,2.1-1,2.1-2.6,0-1.4-.7-2.5-2-2.5a2.109,2.109,0,0,0-1.9,1.5,4.331,4.331,0,0,0-.1.5v1.3Z" fill="#8d1530"/>
      <path id="Path_87" data-name="Path 87" d="M173.9,48.1l1.5,4a7.366,7.366,0,0,1,.4,1.4h0c.1-.4.3-.9.4-1.4l1.3-4h1.3L177,52.9c-.9,2.3-1.5,3.5-2.3,4.2a4.41,4.41,0,0,1-1.5.8l-.3-1a4.073,4.073,0,0,0,1.1-.6,3.161,3.161,0,0,0,1-1.4.5.5,0,0,0,0-.6l-2.5-6.2Z" fill="#8d1530"/>
    </g>
  </g>
</svg>
