<?xml version="1.0" encoding="utf-8"?>
<!-- Generator: Adobe Illustrator 28.0.0, SVG Export Plug-In . SVG Version: 6.00 Build 0)  -->
<svg version="1.1" id="Layer_4" xmlns="http://www.w3.org/2000/svg" xmlns:xlink="http://www.w3.org/1999/xlink" x="0px" y="0px"
	 viewBox="0 0 2717 768" style="enable-background:new 0 0 2717 768;" xml:space="preserve">
<style type="text/css">
	.st0{fill:#811527;}
	.st1{fill:#787979;}
	.st2{display:none;fill:#727474;}
	.st3{display:none;fill:#811527;}
	.st4{fill:#727474;}
	.st5{fill:#7A0E2A;}
</style>
<g>
	<path class="st0" d="M471.86,309.95v-35.32h156.13v35.32h-58.71v172.31h-38.55V309.95H471.86z"/>
	<path class="st0" d="M650.22,482.27V274.64h38.55v87.11h82.99v-87.11h38.55v207.63h-38.55v-86.23h-82.99v86.23H650.22z"/>
	<path class="st0" d="M850.21,482.27V274.64h38.55v207.63H850.21z"/>
	<path class="st0" d="M928.22,482.27V274.64h36.18l79.04,134.94V274.64h38.55v207.63h-35.18l-80.04-136.56v136.56H928.22z"/>
	<path class="st0" d="M1121.59,482.27V274.64h38.55v75.64l55.77-75.64h45.17l-78.87,103.01l97.56,104.62h-50.33l-69.31-76.81v76.81
		H1121.59z"/>
</g>
<g>
	<path class="st1" d="M1284.38,440.5c0.9-0.5,6.38-3.31,16.44-8.4c10.06-5.1,15.54-7.9,16.45-8.4c3.1,6.36,7.66,11.74,13.67,16.13
		c6.01,4.39,12.32,6.58,18.92,6.58c9.61,0,17.65-2.83,24.1-8.48c6.46-5.65,9.69-12.87,9.69-21.65c0-1.41-0.2-3.05-0.61-4.92
		c-0.41-1.87-1.3-4.14-2.67-6.81c-1.38-2.67-3.16-5.04-5.35-7.12c-2.19-2.07-5.33-3.83-9.4-5.3c-4.08-1.46-8.71-2.09-13.91-1.89
		h-21.86v-33.79h22.06c4.52,0.1,8.46-0.72,11.8-2.48s5.78-3.96,7.33-6.61c1.54-2.65,2.65-5.08,3.32-7.28c0.67-2.2,1-4.15,1-5.86
		c0-4.81-1.38-9.48-4.13-14.04c-2.75-4.56-7.34-7.43-13.74-8.64c-13.02-1.7-23.38,2.4-31.09,12.31l-29.44-19.37
		c5.81-9.71,14.17-17.29,25.08-22.75c10.91-5.46,22.83-7.83,35.74-7.13c16.86,0.9,30.56,6.73,41.11,17.5
		c10.54,10.76,15.81,23.71,15.81,38.82c0,8.11-2.21,15.63-6.63,22.56c-4.42,6.93-10.27,12.57-17.56,16.91
		c10.41,3.91,18.9,11.31,25.46,22.19c6.56,10.88,9.29,21.79,8.19,32.72c-1.2,11.93-5.51,22.46-12.92,31.59
		c-7.41,9.13-16.74,15.89-27.98,20.31s-23.38,6.17-36.39,5.27c-13.62-0.89-26.06-5.18-37.32-12.87
		C1298.27,461.9,1289.88,452.2,1284.38,440.5z"/>
	<path class="st1" d="M1447.91,413.16c-0.71-8.2-1.06-16.22-1.06-24.07c0-7.85,0.33-15.91,0.99-24.18
		c0.66-8.27,1.83-16.07,3.51-23.4c1.68-7.33,3.83-14.46,6.45-21.38c2.62-6.93,6-13.13,10.15-18.62c4.15-5.48,8.87-10.24,14.15-14.28
		c5.29-4.04,11.58-7.1,18.89-9.2c7.31-2.09,15.31-2.99,24-2.69c6.32,0.2,12.1,0.92,17.33,2.15c5.23,1.24,10.52,3.24,15.85,6.01
		s10.27,6.7,14.82,11.8c4.54,5.1,8.5,11.31,11.86,18.63l-35.38,14.72c-6.03-12.21-15.07-18.32-27.13-18.32
		c-7.03,0-13.23,1.73-18.6,5.18c-5.37,3.45-9.59,8.14-12.65,14.04c-3.06,5.91-4.77,12.52-5.12,19.82
		c-0.35,7.31-0.28,15.07,0.23,23.28c1.95-5.71,6.41-10.91,13.38-15.62c6.97-4.7,15.06-7.06,24.26-7.06c17,0,31.75,6.26,44.24,18.77
		c12.5,12.52,18.69,28.99,18.59,49.41c-0.3,19.02-7.01,34.57-20.15,46.63c-13.14,12.07-29.88,18.05-50.23,17.95
		c-18.47-0.3-34.06-6.75-46.75-19.35C1456.83,450.81,1449.63,434.06,1447.91,413.16z M1486.19,415.39c0,8.67,2.96,16.06,8.88,22.16
		c5.92,6.1,13.05,9.15,21.38,9.15c8.53,0.2,15.78-2.65,21.75-8.55c5.97-5.9,9.01-13.19,9.11-21.86c0.2-8.57-2.59-15.91-8.36-22.01
		c-5.77-6.1-12.87-9.2-21.3-9.3c-8.53-0.2-15.88,2.68-22.06,8.63C1489.43,399.56,1486.29,406.82,1486.19,415.39z"/>
	<path class="st1" d="M1606.5,440.4c0.9-0.5,6.18-3.78,15.84-9.84c9.66-6.06,14.94-9.33,15.84-9.84c4,7.41,9.51,13.42,16.52,18.02
		c7.01,4.61,14.22,6.91,21.63,6.91c12.92,0,23.28-3.4,31.09-10.21c7.81-6.81,11.71-15.02,11.71-24.63c0-11.21-3.63-19.8-10.89-25.76
		c-7.26-5.96-16.55-8.94-27.86-8.94c-18.32,0-33.74,6.76-46.26,20.28l-21.48-12.92l16.97-104.53h114.44v34.39h-84.4l-7.06,40.75
		c3.91-3.47,9.36-6.15,16.37-8.03c7.01-1.89,13.97-2.83,20.88-2.83c9.21,0,17.85,1.47,25.91,4.4c8.06,2.93,15.14,7.17,21.25,12.73
		c6.11,5.56,10.91,12.68,14.42,21.37c3.5,8.69,5.26,18.39,5.26,29.09c0,21.43-7.33,38.77-22,52.04
		c-14.67,13.27-34.12,19.9-58.35,19.9c-14.02,0-27.41-3.88-40.17-11.64C1623.4,463.35,1613.51,453.11,1606.5,440.4z"/>
</g>
<g>
	<path class="st0" d="M233.76,512.17c0-1.64,0.01-2.69,0-3.74c-0.24-21.37,0.44-42.81-0.99-64.1c-1.31-19.58-4.21-39.13-7.65-58.47
		c-3.52-19.79-8.68-39.29-16-58.08c-7.3-18.74-15.7-36.96-27.17-53.6c-0.59-0.86-1.02-1.82-1.58-2.83
		c54.38-1.2,108.53-2.39,162.68-3.59c0.01,0.09,0.03,0.19,0.04,0.28c-42.39,5.09-84.77,10.17-127.69,15.32
		c2.54,5.09,5,9.8,7.26,14.59c7.36,15.66,13.25,31.85,17.21,48.7c3.4,14.48,7.07,28.93,9.48,43.59c2.39,14.57,3.71,29.35,4.85,44.08
		c1.04,13.44,1.2,26.96,1.76,40.44c0.04,0.93,0.2,1.85,0.36,3.2c3.45-0.32,6.75-0.55,10.02-0.94c16.7-1.99,33.39-4.1,50.09-6.01
		c10.79-1.23,21.59-2.61,32.42-3.15c10.83-0.54,21.7-0.12,33.13-0.12c-1.54-29.18-3.08-58.31-4.61-87.44
		c0.32-0.02,0.65-0.04,0.97-0.05c0.85,5.71,1.77,11.41,2.55,17.14c1.38,10.16,2.7,20.32,4.02,30.49
		c1.65,12.64,3.29,25.27,4.93,37.91c0.06,0.47,0.08,0.96,0.19,1.42c1.94,8.06,1.74,7.13-6.1,8c-17.17,1.89-34.36,3.69-51.43,6.31
		c-23.36,3.58-45.86,10.68-68.14,18.39c-8.97,3.11-17.63,7.14-26.43,10.73C236.75,511.13,235.53,511.52,233.76,512.17z"/>
	<path class="st2" d="M224.13,460.75c-17.75-65.17-47.55-123.84-90.75-176.75c2.1,0,3.65,0,4.88,0c11.23-0.01,22.15,0.2,33.37-0.15
		c3.93-0.01,4.96,0.36,6.37,3.15c5.58,11.05,12.05,22.81,17.13,34.08c6.58,14.59,11.57,29.79,14.99,45.46
		c2.67,12.27,5.6,24.51,7.7,36.88c2.02,11.94,3.25,24.03,4.6,36.07C223.21,446.56,223.57,453.67,224.13,460.75z"/>
	<path class="st3" d="M101.7,305.17c8.81,0.42,17.3,0.97,26.41,0.99C140,307,136.39,303.44,145,316
		c15.16,22.1,30.2,47.79,41.89,71.88c7.26,14.96,14.07,30.19,20.08,45.68c6.09,15.71,10.96,31.9,15.82,48.13
		C188.92,418.51,153.22,356.7,101.7,305.17z"/>
	<path class="st4" d="M298.25,365.47c1.07,0.33,2.26,0.62,3.39,1.07c9.27,3.69,18.5,7.48,27.79,11.1c2.96,1.16,4.52,0.01,5.57-2.99
		c3.61-10.26,7.41-20.46,11.04-30.72c3.14-8.88,6.13-17.82,9.21-26.72c1.25-3.6,2.57-7.17,3.99-11.09c-6.46-2.34-12.36-4.48-19-6.88
		c14.13-9.41,27.75-18.49,41.82-27.86c4.63,16.01,9.15,31.63,13.94,48.16c-5.9-2.03-10.94-3.51-15.75-5.52
		c-3.09-1.29-4.42-0.37-5.68,2.38c-5.68,12.43-11.55,24.77-17.24,37.19c-5.54,12.1-10.95,24.26-16.4,36.4
		c-0.48,1.07-0.8,2.22-1.43,3.97c-4.81-2.46-9.58-4.88-14.33-7.32c-6.7-3.43-13.36-6.92-20.12-10.21c-0.65-0.31-2.51,0.38-2.78,1.03
		c-2.03,4.85-3.82,9.8-5.66,14.72c-3.15,8.41-6.32,16.82-9.42,25.25c-2.42,6.6-5.93,14.16-8.31,20.77c-0.05-0.15,0.23-0.57,0,0
		c-0.3-0.1,0,0-0.3-0.1C285.06,414.16,291.55,390.21,298.25,365.47z"/>
</g>
<path class="st5" d="M101.7,305.17L138,306c0,0,64.6,90.38,84.8,175.69C222.8,481.69,164.4,367.33,101.7,305.17z"/>
<path class="st1" d="M133.38,284l42.36-0.15c0,0,43.52,62.66,48.39,176.9C224.13,460.75,192.77,348,133.38,284z"/>
</svg>
