<svg xmlns="http://www.w3.org/2000/svg" width="36.93" height="34" viewBox="0 0 36.93 34">
  <g id="Group_2" data-name="Group 2" transform="translate(-1274.71 -329.463)">
    <path id="Path_6" data-name="Path 6" d="M19.815,81.7c-.085.092,0,.239,0,.239l10,7v2.9l13.4,7.243.609-.239,12.89-7V86.535L56.2,86.9l-.169.129-1.336.974v2.9l-10.64,5.717-.863.551-11.6-6.287v-2.9" transform="translate(1254.932 258.629)" fill="#830b25"/>
    <path id="Path_7" data-name="Path 7" d="M33.1,125.339l7.737,5.551v2.9l13.254,7.482.454-.239,13.036-7.243v-5.074h0L65.6,129.935v2.886l-11.5,6.287h.067l-11.337-6.287v-2.886L33.1,125.1" transform="translate(1244.059 222.187)" fill="#830b25"/>
    <path id="Path_8" data-name="Path 8" d="M89.6,42.139l12.555,6.029.974-.478,11.838-5.79-12.794-7.5Z" transform="translate(1194.742 299.162)" fill="#8e9090"/>
    <path id="Path_9" data-name="Path 9" d="M35.7,19.821l7.291,5.073v3.879l12.8,7,.437.239L69.7,28.276V22.964L49.174,12.1v.239l5.292,3.86,13.474,7.5v3.86L56.23,33.828,44.755,27.8V23.7l-7.946-3.64L35.7,19.582Z" transform="translate(1241.937 317.363)" fill="#830b25"/>
    <path id="Path_10" data-name="Path 10" d="M79.9,40.914l12.941-7.04,1.25-.074.46.864L81.683,41.649Z" transform="translate(1204.473 299.652)" fill="#830b25"/>
  </g>
</svg>
